<?xml version="1.0" encoding="utf-8"?>
<!-- Generator: Adobe Illustrator 21.0.2, SVG Export Plug-In . SVG Version: 6.00 Build 0)  -->
<svg version="1.1" id="Layer_1" xmlns="http://www.w3.org/2000/svg" xmlns:xlink="http://www.w3.org/1999/xlink" x="0px" y="0px"
	 viewBox="0 0 240 60" style="enable-background:new 0 0 240 60;" xml:space="preserve">
<style type="text/css">
	.st0{fill:#FAAF40;}
	.st1{fill:#FCB514;}
	.st2{fill:#231F20;}
	.st3{fill:#007658;}
</style>
<g>
	<g>
		<g>
			<path class="st0" d="M85.1,24.1l-1.4,0c0,0,0-0.6,0.1-1.5l1.4,0.2C85.2,23.6,85.1,24.1,85.1,24.1z"/>
		</g>
		<g>
			<path class="st0" d="M104.6,49.9h-2.7v-1.4h2.7V49.9z M99.1,49.9h-2.7v-1.4h2.7V49.9z M93.6,49.8c-1,0-2-0.1-2.8-0.3l0.2-1.4
				c0.8,0.1,1.6,0.2,2.6,0.3L93.6,49.8z M88.1,48.7c-1-0.4-1.8-1-2.4-1.8l1.1-0.9c0.5,0.6,1.1,1,1.9,1.4L88.1,48.7z M84.4,44.2
				c0-0.2-0.1-0.5-0.1-0.7c0-0.1,0-0.2,0-0.3c0-0.7,0.1-1.4,0.4-2l1.3,0.5c-0.2,0.5-0.3,1-0.3,1.5c0,0.1,0,0.1,0,0.2
				c0,0.2,0,0.4,0.1,0.6L84.4,44.2z M87.4,39.7l-1-1c0.6-0.6,1.3-1.2,2.2-1.8l0.8,1.2C88.6,38.6,87.9,39.1,87.4,39.7z M91.7,36.7
				L91,35.5c0.8-0.4,1.6-0.8,2.5-1.2l0.6,1.3C93.2,36,92.4,36.4,91.7,36.7z M96.6,34.6l-0.5-1.3c0.8-0.3,1.6-0.6,2.6-0.9l0.5,1.3
				C98.2,34,97.4,34.3,96.6,34.6z M101.7,32.6l-0.6-1.3c0.8-0.4,1.6-0.8,2.2-1.3l0.8,1.1C103.5,31.7,102.6,32.2,101.7,32.6z
				 M106.3,29.2l-1.1-0.9c0.5-0.7,0.9-1.4,1.2-2.2l1.3,0.5C107.3,27.6,106.9,28.4,106.3,29.2z M108.4,23.8l-1.4-0.2
				c0-0.4,0.1-0.8,0.1-1.2c0-0.4,0-0.9-0.1-1.3l1.4-0.2c0.1,0.5,0.1,1,0.1,1.5C108.5,22.9,108.5,23.4,108.4,23.8z M85.8,20.2
				l-1.3-0.4c0.3-0.9,0.6-1.8,0.9-2.7l1.3,0.6C86.3,18.5,86,19.4,85.8,20.2z M106.5,18.6c-0.1-0.3-0.2-0.7-0.4-1
				c-0.2-0.4-0.4-0.9-0.7-1.3l1.2-0.8c0.3,0.5,0.6,1,0.8,1.5c0.2,0.4,0.3,0.7,0.4,1.1L106.5,18.6z M87.9,15.5l-1.1-0.8
				c0.6-0.8,1.2-1.5,2-2.1l0.9,1.1C89,14.2,88.4,14.8,87.9,15.5z M103.8,14.4c-0.6-0.6-1.3-1.1-2.1-1.5l0.7-1.2
				c0.9,0.5,1.6,1,2.3,1.7L103.8,14.4z M91.8,12.4l-0.5-1.3c0.1,0,0.1-0.1,0.2-0.1c0.8-0.3,1.7-0.6,2.6-0.7l0.2,1.4
				c-0.8,0.1-1.6,0.3-2.3,0.6C91.9,12.3,91.8,12.4,91.8,12.4z M99.3,12c-0.8-0.2-1.7-0.4-2.5-0.4l0.1-1.4c1,0.1,1.9,0.2,2.8,0.5
				L99.3,12z"/>
		</g>
		<g>
			<rect x="107.3" y="48.5" class="st0" width="1.4" height="1.4"/>
		</g>
	</g>
	<g>
		<g>
			<path class="st1" d="M33.5,17.4c2.4,0,4.3,0.7,5.7,2.2c1.2,1.3,1.9,3,1.9,4.9c0,2.2-0.8,3.9-2.5,5c1.9,1.3,2.9,3.1,2.9,5.3
				c0,1.8-0.7,3.4-2,4.6c-1.5,1.4-3.4,2.1-5.9,2.1H23.1c-0.7,0-1.3-0.2-1.7-0.7c-0.5-0.5-0.7-1.1-0.7-1.7V19.8
				c0-0.7,0.2-1.3,0.7-1.7c0.5-0.5,1.1-0.7,1.7-0.7H33.5z M25.6,22.3v5.1h7.9c0.8,0,1.5-0.3,2-0.8c0.5-0.5,0.7-1.1,0.7-1.8
				c0-0.7-0.2-1.3-0.7-1.7c-0.5-0.5-1.2-0.8-2-0.8H25.6z M25.6,31.5v5.1h7.9c1,0,1.7-0.2,2.3-0.7c0.5-0.4,0.7-1,0.7-1.6
				c0-0.7-0.3-1.3-0.8-1.9c-0.6-0.6-1.3-1-2.2-1H25.6z"/>
			<path class="st2" d="M33.5,42.2H23.1c-0.9,0-1.6-0.3-2.2-0.9c-0.6-0.6-0.9-1.4-0.9-2.2V19.8c0-0.9,0.3-1.6,0.9-2.2
				c0.6-0.6,1.4-0.9,2.2-0.9h10.4c2.6,0,4.7,0.8,6.2,2.4c1.4,1.5,2.1,3.3,2.1,5.4c0,2.1-0.7,3.7-2.1,5c1.6,1.4,2.4,3.1,2.4,5.3
				c0,2-0.7,3.7-2.2,5.1C38.4,41.4,36.2,42.2,33.5,42.2z M23.1,18.1c-0.5,0-0.9,0.2-1.2,0.5s-0.5,0.7-0.5,1.2v19.3
				c0,0.5,0.2,0.9,0.5,1.2c0.3,0.3,0.7,0.5,1.2,0.5h10.4c2.3,0,4.1-0.6,5.5-1.9c1.2-1.1,1.8-2.5,1.8-4.1c0-2-0.9-3.6-2.6-4.7
				l-0.9-0.6l0.9-0.6c1.5-1,2.2-2.4,2.2-4.4c0-1.8-0.6-3.2-1.7-4.5c-1.3-1.3-3-2-5.2-2H23.1z M33.5,37.3h-8.6v-6.5h8.6
				c1.1,0,2,0.4,2.7,1.2c0.6,0.7,1,1.5,1,2.3c0,0.8-0.3,1.5-0.9,2.1C35.6,37,34.7,37.3,33.5,37.3z M26.3,35.9h7.2
				c0.8,0,1.4-0.2,1.8-0.5c0.3-0.3,0.5-0.6,0.5-1.1c0-0.5-0.2-1-0.6-1.4c-0.4-0.5-1-0.7-1.7-0.7h-7.2V35.9z M25.6,28.1h-0.7v-6.5
				h8.6c1.1,0,1.9,0.3,2.5,1c0.6,0.6,0.9,1.3,0.9,2.2c0,0.9-0.3,1.6-0.9,2.3c-0.6,0.7-1.5,1.1-2.5,1.1H25.6z M26.3,26.7h7.2
				c0.6,0,1.1-0.2,1.5-0.6c0.3-0.4,0.5-0.8,0.5-1.3c0-0.5-0.2-0.9-0.5-1.2c-0.4-0.4-0.9-0.5-1.5-0.5h-7.2V26.7z"/>
		</g>
		<g>
			<path class="st1" d="M57.3,24.2c0-0.7,0.2-1.2,0.7-1.7c0.5-0.5,1.1-0.7,1.7-0.7c0.7,0,1.2,0.2,1.7,0.7c0.5,0.5,0.7,1,0.7,1.7v7.4
				c0,2.7-1,5-2.9,7c-1.9,1.9-4.3,2.9-7,2.9c-2.7,0-5-1-7-2.9c-1.9-1.9-2.9-4.2-2.9-7v-7.4c0-0.7,0.2-1.2,0.7-1.7
				c0.5-0.5,1.1-0.7,1.7-0.7s1.3,0.2,1.7,0.7c0.5,0.5,0.7,1,0.7,1.7v7.4c0,1.4,0.5,2.5,1.5,3.5c1,1,2.1,1.4,3.5,1.4s2.5-0.5,3.5-1.4
				c1-1,1.5-2.1,1.5-3.5V24.2z"/>
			<path class="st2" d="M52.4,42.2c-2.9,0-5.4-1-7.5-3.1c-2.1-2.1-3.1-4.6-3.1-7.5v-7.4c0-0.9,0.3-1.6,0.9-2.2
				c0.6-0.6,1.4-0.9,2.2-0.9s1.6,0.3,2.2,0.9c0.6,0.6,0.9,1.3,0.9,2.2v7.4c0,1.2,0.4,2.2,1.3,3c0.8,0.8,1.8,1.2,3,1.2
				c1.2,0,2.2-0.4,3-1.2c0.8-0.8,1.3-1.8,1.3-3v-7.4c0-0.9,0.3-1.6,0.9-2.2c0.6-0.6,1.4-0.9,2.2-0.9c0.9,0,1.6,0.3,2.2,0.9
				c0.6,0.6,0.9,1.3,0.9,2.2v7.4c0,2.9-1,5.4-3.1,7.5C57.8,41.2,55.3,42.2,52.4,42.2z M45,22.5c-0.5,0-0.9,0.2-1.2,0.5
				c-0.3,0.3-0.5,0.7-0.5,1.2v7.4c0,2.5,0.9,4.7,2.7,6.5c1.8,1.8,3.9,2.7,6.5,2.7c2.6,0,4.7-0.9,6.5-2.7c1.8-1.8,2.7-3.9,2.7-6.5
				v-7.4c0-0.5-0.2-0.9-0.5-1.2c-0.4-0.4-0.7-0.5-1.2-0.5c-0.5,0-0.9,0.2-1.2,0.5c-0.3,0.3-0.5,0.7-0.5,1.2v7.4c0,1.6-0.6,2.9-1.7,4
				c-1.1,1.1-2.5,1.6-4,1.6c-1.6,0-2.9-0.6-4-1.6c-1.1-1.1-1.7-2.5-1.7-4v-7.4c0-0.5-0.2-0.9-0.5-1.2C45.9,22.7,45.5,22.5,45,22.5z"
				/>
		</g>
		<g>
			<path class="st1" d="M80.9,26.2c0,0.6-0.1,1.2-0.6,1.7c-0.4,0.5-1,0.8-1.6,0.8c-0.6,0-1.2-0.1-1.7-0.6c-1.5-1.3-3-1.9-4.7-1.9
				c-2.8,0-4.2,0.8-4.1,2.2c0.1,0.9,1.4,1.3,4.1,1.2c2.2-0.1,4.1,0.3,5.7,1c2.1,0.9,3.1,2.5,3.1,4.6c0,2.1-1,3.7-3.1,4.8
				c-1.7,0.9-3.5,1.4-5.6,1.4c-1.2,0-2.5-0.2-4-0.7c-1.5-0.5-2.8-1.2-4-2.2c-0.5-0.4-0.8-1-0.8-1.6c-0.1-0.7,0.1-1.2,0.5-1.7
				c0.4-0.5,0.9-0.7,1.6-0.7c0.6,0,1.2,0.2,1.7,0.7c1.6,1.2,3.3,1.8,5,1.8c2.9-0.1,4.2-0.8,4-2.1c-0.1-0.9-1.4-1.3-4-1.2
				c-2.3,0.1-4.2-0.2-5.8-1c-2-0.9-3.1-2.5-3.1-4.7c0-2.2,1.2-3.9,3.6-5.1c1.7-0.8,3.4-1.2,5.3-1.2c1.2,0,2.5,0.2,3.9,0.7
				c1.5,0.5,2.7,1.2,3.8,2.1C80.6,25,80.9,25.5,80.9,26.2z"/>
			<path class="st2" d="M72.4,42.2c-1.2,0-2.6-0.2-4.1-0.7c-1.6-0.5-3-1.3-4.2-2.3c-0.7-0.5-1-1.2-1.1-2.1c-0.1-0.8,0.1-1.6,0.7-2.2
				c0.5-0.6,1.3-1,2.1-1c0.8,0,1.5,0.3,2.1,0.8c1.5,1.1,3,1.6,4.5,1.6c2.3-0.1,3-0.6,3.2-0.8c0.1-0.1,0.2-0.2,0.1-0.5l0,0
				c0,0-0.1-0.7-3.3-0.6c-2.4,0.1-4.5-0.3-6.2-1c-2.3-1-3.5-2.8-3.5-5.3c0-2.5,1.3-4.4,3.9-5.7c1.7-0.8,3.6-1.3,5.6-1.3
				c1.3,0,2.6,0.2,4.1,0.7c1.5,0.5,2.9,1.2,4.1,2.2c0.6,0.6,1,1.3,1.1,2.1l0,0c0.1,0.8-0.2,1.6-0.7,2.2c-0.6,0.6-1.3,1-2.1,1.1
				c-0.8,0.1-1.6-0.2-2.2-0.7c-1.3-1.2-2.7-1.7-4.2-1.7c-2.2,0-2.9,0.5-3.2,0.8C69,27.9,69,28.1,69,28.4c0,0.2,0.8,0.7,3.3,0.6
				c2.3-0.1,4.3,0.3,6.1,1.1c2.3,1.1,3.5,2.8,3.5,5.2c0,2.3-1.2,4.2-3.5,5.4C76.6,41.7,74.6,42.2,72.4,42.2
				C72.5,42.2,72.5,42.2,72.4,42.2z M65.8,35.3c-0.4,0-0.8,0.1-1,0.5c-0.3,0.4-0.4,0.8-0.4,1.2c0,0.5,0.2,0.8,0.6,1.1
				c1.1,0.9,2.3,1.6,3.8,2c1.4,0.4,2.6,0.7,3.8,0.7c1.9,0,3.7-0.5,5.2-1.4c1.9-1,2.8-2.4,2.8-4.2c0-1.8-0.9-3.1-2.7-4
				c-1.5-0.7-3.4-1-5.4-0.9c-2,0.1-4.6,0-4.8-1.8c0-0.7,0.2-1.3,0.6-1.7c0.7-0.8,2.1-1.2,4.2-1.2c1.8,0,3.5,0.7,5.1,2.1
				c0.4,0.3,0.8,0.4,1.2,0.4c0.5,0,0.8-0.2,1.1-0.6c0.3-0.3,0.4-0.7,0.4-1.2c0-0.5-0.2-0.8-0.6-1.1c-1-0.8-2.2-1.5-3.6-1.9
				c-1.3-0.4-2.6-0.7-3.7-0.7c-1.8,0-3.4,0.4-5,1.1c-2.1,1-3.2,2.5-3.2,4.5c0,1.9,0.9,3.3,2.7,4.1c1.5,0.7,3.4,1,5.5,0.9
				c1.9-0.1,4.5,0,4.7,1.8c0.1,0.6-0.1,1.1-0.4,1.6c-0.7,0.8-2,1.2-4.2,1.3c0,0,0,0,0,0c-1.9,0-3.7-0.7-5.4-1.9
				C66.7,35.5,66.3,35.3,65.8,35.3C65.8,35.3,65.8,35.3,65.8,35.3z"/>
		</g>
		<g>
			<path class="st1" d="M130.3,29.4c0,0.7-0.3,1.2-0.8,1.7c-0.5,0.4-1.1,0.7-1.7,0.6c-0.7,0-1.2-0.3-1.7-0.8c-0.9-1-2.3-1.4-4.4-1.5
				c-1.1,0-2.1,0.2-3.1,0.5c-1.3,0.5-1.9,1.2-1.9,2.1c0,1,0.8,1.6,2.3,2c0.5,0.1,1.3,0.2,2.3,0.4c1.4,0.1,2.3,0.2,2.7,0.3
				c2.2,0.3,3.9,0.9,5,1.6c1.5,1.1,2.3,2.7,2.3,5c0,2.4-1.1,4.3-3.3,5.7c-1.9,1.2-4.1,1.8-6.6,1.8c-1.9,0-3.6-0.3-5.1-1
				c-1.8-0.7-3.1-1.8-3.9-3.2c-0.5-0.8-0.6-1.5-0.5-2.2c0.1-0.8,0.6-1.4,1.4-1.7c0.5-0.2,1-0.2,1.6-0.1c0.5,0.1,1,0.4,1.3,0.9
				c0.7,1,1.5,1.7,2.2,2c0.7,0.3,1.7,0.5,3,0.5c1.1,0,2.1-0.2,3.1-0.6c1.3-0.5,2-1.2,2-2.1c0-0.9-0.8-1.6-2.3-2
				c-0.5-0.1-1.3-0.3-2.3-0.4c-1.5-0.2-2.4-0.3-2.7-0.4c-2.2-0.4-3.9-0.9-5-1.7c-1.5-1.1-2.3-2.6-2.3-4.7c0-2.4,1.1-4.3,3.2-5.7
				c1.9-1.2,4.1-1.8,6.6-1.8c3.5,0,6.1,1,7.9,3C130.1,28.2,130.3,28.7,130.3,29.4z"/>
			<path class="st2" d="M121.4,49.6c-1.9,0-3.7-0.3-5.3-1c-1.9-0.8-3.4-2-4.3-3.5c-0.5-0.9-0.7-1.8-0.6-2.7c0.2-1,0.8-1.8,1.8-2.2
				c0.7-0.3,1.4-0.3,2.1-0.1c0.7,0.2,1.2,0.6,1.6,1.2c0.6,0.9,1.3,1.5,2,1.8c0.6,0.3,1.5,0.4,2.8,0.4c1,0,2-0.2,2.9-0.5
				c1.5-0.6,1.5-1.2,1.5-1.5c0-0.6-0.6-1-1.8-1.3c-0.5-0.1-1.3-0.3-2.3-0.4c-1.6-0.2-2.4-0.3-2.7-0.4c-2.4-0.4-4.1-1-5.3-1.8
				c-1.7-1.2-2.6-3-2.6-5.3c0-2.7,1.2-4.8,3.5-6.3c2-1.3,4.3-1.9,7-1.9c3.7,0,6.5,1.1,8.4,3.3c0.6,0.6,0.9,1.4,0.8,2.2
				c0,0.9-0.4,1.6-1,2.2c-0.6,0.6-1.4,0.8-2.2,0.8c-0.9,0-1.6-0.4-2.2-1c-0.7-0.8-2-1.2-3.9-1.2c-1,0-2,0.2-2.8,0.5
				c-1.3,0.5-1.4,1.1-1.4,1.5c0,0.2,0,0.9,1.7,1.3c0.5,0.1,1.3,0.2,2.3,0.3c1.5,0.1,2.4,0.2,2.7,0.3c2.4,0.3,4.1,0.9,5.3,1.8
				c1.7,1.2,2.6,3.1,2.6,5.5c0,2.7-1.2,4.8-3.6,6.3C126.5,48.9,124.2,49.5,121.4,49.6C121.5,49.6,121.4,49.6,121.4,49.6z
				 M114.3,41.3c-0.2,0-0.4,0-0.6,0.1c-0.6,0.3-0.9,0.6-1,1.2c-0.1,0.5,0.1,1.1,0.4,1.7c0.7,1.3,2,2.3,3.6,2.9
				c1.5,0.6,3.1,0.9,4.8,0.9c2.4,0,4.5-0.6,6.3-1.7c2-1.3,2.9-2.9,2.9-5.1c0-2-0.7-3.5-2-4.4c-1-0.7-2.6-1.2-4.7-1.5
				c-0.3,0-1.2-0.1-2.7-0.3c-1.1-0.1-1.9-0.2-2.4-0.4c-2.3-0.5-2.8-1.7-2.8-2.6c0-0.9,0.4-2,2.3-2.8c1-0.4,2.1-0.6,3.3-0.6
				c2.2,0,3.9,0.6,4.9,1.7c0.3,0.4,0.7,0.5,1.2,0.6c0.5,0,0.9-0.1,1.2-0.5c0.3-0.3,0.5-0.7,0.5-1.2v0c0-0.5-0.1-0.9-0.4-1.2
				c-1.7-1.8-4.1-2.8-7.4-2.8c-2.4,0-4.5,0.5-6.2,1.7c-2,1.3-2.9,2.9-2.9,5.1c0,1.9,0.7,3.2,2,4.2c1,0.7,2.6,1.2,4.7,1.6
				c0.3,0,1.1,0.2,2.7,0.4c1.1,0.1,1.9,0.3,2.4,0.4c2.3,0.6,2.8,1.8,2.8,2.6c0,0.9-0.4,2-2.4,2.8c-1,0.4-2.2,0.6-3.3,0.6
				c-1.5,0-2.6-0.2-3.3-0.5c-0.9-0.4-1.7-1.2-2.5-2.3c-0.2-0.3-0.5-0.5-0.9-0.6C114.6,41.3,114.4,41.3,114.3,41.3z"/>
		</g>
		<g>
			<path class="st1" d="M147.7,41.6c0.7,0,1.3,0.2,1.7,0.7c0.5,0.5,0.7,1,0.7,1.7c0,0.7-0.2,1.2-0.7,1.7c-0.9,1-2,1.7-3.3,2.3
				c-1.2,0.5-2.5,0.8-3.9,0.8c-2.7,0-5-1-7-2.9c-1.9-1.9-2.9-4.2-2.9-7c0-2.7,1-5.1,2.9-7c1.9-1.9,4.2-2.9,7-2.9
				c1.4,0,2.7,0.3,3.9,0.8c0,0,0.1,0,0.2,0.1c1.2,0.5,2.2,1.3,3.1,2.2c0.5,0.5,0.7,1.1,0.7,1.7c0,0.7-0.3,1.2-0.7,1.7
				c-0.5,0.5-1.1,0.7-1.7,0.7c-0.7,0-1.2-0.3-1.7-0.8c-0.5-0.5-1-0.8-1.7-1.1c-0.6-0.3-1.3-0.4-2-0.4c-1.4,0-2.5,0.5-3.5,1.5
				c-1,1-1.5,2.1-1.5,3.5c0,1.4,0.5,2.5,1.5,3.5c1,1,2.1,1.4,3.5,1.4c0.7,0,1.3-0.1,2-0.4c0.6-0.3,1.2-0.7,1.6-1.2
				C146.5,41.9,147.1,41.6,147.7,41.6z"/>
			<path class="st2" d="M142.4,49.5c-2.9,0-5.4-1-7.5-3.1c-2.1-2.1-3.1-4.6-3.1-7.5c0-2.9,1-5.4,3.1-7.5c2.1-2.1,4.6-3.1,7.5-3.1
				c1.4,0,2.8,0.3,4.2,0.9l0,0c0,0,0.1,0,0.1,0c1.3,0.6,2.4,1.4,3.4,2.4c0.6,0.6,0.9,1.4,0.9,2.3c0,0.8-0.3,1.6-1,2.2
				c-0.6,0.6-1.4,0.9-2.2,0.9c-0.9,0-1.6-0.4-2.2-1c-0.4-0.4-0.9-0.7-1.4-1c-0.5-0.2-1.1-0.3-1.7-0.3c-1.2,0-2.2,0.4-3,1.3
				c-0.8,0.8-1.3,1.8-1.3,3c0,1.2,0.4,2.2,1.3,3c0.8,0.8,1.8,1.2,3,1.2c0.6,0,1.2-0.1,1.7-0.3c0.5-0.2,1-0.6,1.4-1
				c0.6-0.6,1.3-0.9,2.2-1c0.9,0,1.6,0.3,2.2,0.9c0.6,0.6,0.9,1.3,1,2.2c0,0.8-0.3,1.6-0.9,2.2c-1,1-2.2,1.9-3.5,2.4
				C145.3,49.2,143.9,49.5,142.4,49.5z M142.4,29.8c-2.5,0-4.7,0.9-6.5,2.7c-1.8,1.8-2.7,3.9-2.7,6.5c0,2.5,0.9,4.7,2.7,6.5
				c1.8,1.8,3.9,2.7,6.5,2.7c1.3,0,2.5-0.2,3.6-0.7c1.2-0.5,2.2-1.2,3-2.1c0.3-0.4,0.5-0.7,0.5-1.2c0-0.5-0.2-0.9-0.5-1.2
				c-0.4-0.3-0.8-0.5-1.2-0.5l0,0c-0.5,0-0.9,0.2-1.2,0.5c-0.5,0.6-1.2,1-1.9,1.3c-0.7,0.3-1.5,0.4-2.2,0.4c-1.6,0-2.9-0.6-4-1.6
				c-1.1-1.1-1.7-2.5-1.7-4c0-1.6,0.6-2.9,1.7-4c1.1-1.1,2.4-1.7,4-1.7c0.8,0,1.5,0.2,2.2,0.5c0.7,0.3,1.4,0.8,1.9,1.3
				c0.3,0.4,0.7,0.5,1.2,0.6c0.5,0,0.9-0.2,1.2-0.5c0.3-0.3,0.5-0.7,0.5-1.2c0-0.5-0.1-0.9-0.5-1.3c-0.8-0.9-1.8-1.6-2.9-2.1
				c0,0-0.1,0-0.2-0.1C144.9,30,143.7,29.8,142.4,29.8z"/>
		</g>
		<g>
			<path class="st1" d="M156.5,46.4c0,0.7-0.2,1.3-0.7,1.7c-0.5,0.5-1.1,0.7-1.7,0.7s-1.3-0.2-1.7-0.7s-0.7-1.1-0.7-1.7V27.1
				c0-0.7,0.2-1.3,0.7-1.7c0.5-0.5,1.1-0.7,1.7-0.7s1.3,0.2,1.7,0.7c0.5,0.5,0.7,1.1,0.7,1.7v3.3c1.5-0.9,3.2-1.3,5-1.3
				c2.7,0,5.1,1,7,2.9c1.9,1.9,2.9,4.3,2.9,7v7.4c0,0.7-0.2,1.3-0.7,1.7c-0.5,0.5-1,0.7-1.7,0.7c-0.7,0-1.3-0.2-1.7-0.7
				c-0.5-0.5-0.7-1.1-0.7-1.7V39c0-1.4-0.5-2.5-1.5-3.5c-1-1-2.1-1.5-3.5-1.5c-1.4,0-2.5,0.5-3.5,1.5c-1,1-1.5,2.1-1.5,3.5V46.4z"/>
			<path class="st2" d="M168.9,49.5c-0.9,0-1.6-0.3-2.2-0.9c-0.6-0.6-0.9-1.4-0.9-2.2V39c0-1.2-0.4-2.2-1.3-3
				c-0.8-0.8-1.8-1.3-3-1.3c-1.2,0-2.2,0.4-3,1.3c-0.8,0.8-1.3,1.8-1.3,3v7.4c0,0.9-0.3,1.6-0.9,2.2c-0.6,0.6-1.4,0.9-2.2,0.9
				s-1.6-0.3-2.2-0.9c-0.6-0.6-0.9-1.4-0.9-2.2V27.1c0-0.9,0.3-1.6,0.9-2.2c0.6-0.6,1.4-0.9,2.2-0.9s1.6,0.3,2.2,0.9
				c0.6,0.6,0.9,1.4,0.9,2.2v2.2c1.3-0.6,2.8-0.9,4.3-0.9c2.9,0,5.4,1,7.5,3.1c2.1,2.1,3.1,4.6,3.1,7.5v7.4c0,0.9-0.3,1.6-0.9,2.2
				C170.5,49.2,169.7,49.5,168.9,49.5z M161.4,33.3c1.6,0,2.9,0.6,4,1.7c1.1,1.1,1.7,2.5,1.7,4v7.4c0,0.5,0.2,0.9,0.5,1.2
				c0.3,0.3,0.7,0.5,1.2,0.5c0.5,0,0.9-0.2,1.2-0.5c0.4-0.4,0.5-0.7,0.5-1.2V39c0-2.6-0.9-4.7-2.7-6.5c-1.8-1.8-3.9-2.7-6.5-2.7
				c-1.6,0-3.2,0.4-4.6,1.2l-1,0.6v-4.5c0-0.5-0.2-0.9-0.5-1.2c-0.3-0.3-0.7-0.5-1.2-0.5s-0.9,0.2-1.2,0.5c-0.3,0.3-0.5,0.7-0.5,1.2
				v19.3c0,0.5,0.2,0.9,0.5,1.2c0.3,0.3,0.7,0.5,1.2,0.5s0.9-0.2,1.2-0.5c0.3-0.3,0.5-0.7,0.5-1.2V39c0-1.6,0.6-2.9,1.7-4
				C158.5,33.9,159.9,33.3,161.4,33.3z"/>
		</g>
		<g>
			<path class="st1" d="M182.3,29.1c2.7,0,5.1,1,7,2.9c1.9,1.9,2.9,4.3,2.9,7c0,2.7-1,5-2.9,7c-1.9,1.9-4.3,2.9-7,2.9
				c-2.7,0-5-1-7-2.9c-1.9-1.9-2.9-4.2-2.9-7c0-2.7,1-5.1,2.9-7C177.3,30.1,179.6,29.1,182.3,29.1z M178.8,35.5
				c-1,1-1.5,2.1-1.5,3.5c0,1.4,0.5,2.5,1.5,3.5c1,1,2.1,1.4,3.5,1.4c1.4,0,2.5-0.5,3.5-1.4c1-1,1.5-2.1,1.5-3.5
				c0-1.4-0.5-2.5-1.5-3.5c-1-1-2.1-1.5-3.5-1.5C181,34,179.8,34.5,178.8,35.5z"/>
			<path class="st2" d="M182.3,49.5c-2.9,0-5.4-1-7.5-3.1c-2.1-2.1-3.1-4.6-3.1-7.5c0-2.9,1-5.4,3.1-7.5c2.1-2.1,4.6-3.1,7.5-3.1
				c2.9,0,5.4,1,7.5,3.1c2.1,2.1,3.1,4.6,3.1,7.5c0,2.9-1,5.4-3.1,7.5S185.2,49.5,182.3,49.5z M182.3,29.8c-2.5,0-4.7,0.9-6.5,2.7
				c-1.8,1.8-2.7,3.9-2.7,6.5c0,2.5,0.9,4.7,2.7,6.5c1.8,1.8,3.9,2.7,6.5,2.7c2.6,0,4.7-0.9,6.5-2.7c1.8-1.8,2.7-3.9,2.7-6.5
				c0-2.6-0.9-4.7-2.7-6.5C187,30.7,184.9,29.8,182.3,29.8z M182.3,44.6c-1.6,0-2.9-0.6-4-1.6c-1.1-1.1-1.7-2.5-1.7-4
				c0-1.6,0.6-2.9,1.7-4c1.1-1.1,2.4-1.7,4-1.7c1.6,0,2.9,0.6,4,1.7c1.1,1.1,1.7,2.5,1.7,4c0,1.6-0.6,2.9-1.7,4
				C185.2,44.1,183.9,44.6,182.3,44.6z M182.3,34.7c-1.2,0-2.2,0.4-3,1.3l0,0c-0.8,0.8-1.3,1.8-1.3,3c0,1.2,0.4,2.2,1.3,3
				c0.8,0.8,1.8,1.2,3,1.2c1.2,0,2.2-0.4,3-1.2c0.8-0.8,1.3-1.8,1.3-3c0-1.2-0.4-2.2-1.3-3C184.5,35.1,183.5,34.7,182.3,34.7z"/>
		</g>
		<g>
			<path class="st1" d="M203.4,29.1c2.7,0,5.1,1,7,2.9c1.9,1.9,2.9,4.3,2.9,7c0,2.7-1,5-2.9,7c-1.9,1.9-4.3,2.9-7,2.9
				c-2.7,0-5-1-7-2.9c-1.9-1.9-2.9-4.2-2.9-7c0-2.7,1-5.1,2.9-7C198.4,30.1,200.7,29.1,203.4,29.1z M199.9,35.5
				c-1,1-1.5,2.1-1.5,3.5c0,1.4,0.5,2.5,1.5,3.5c1,1,2.1,1.4,3.5,1.4c1.4,0,2.5-0.5,3.5-1.4c1-1,1.5-2.1,1.5-3.5
				c0-1.4-0.5-2.5-1.5-3.5c-1-1-2.1-1.5-3.5-1.5C202,34,200.9,34.5,199.9,35.5z"/>
			<path class="st2" d="M203.4,49.5c-2.9,0-5.4-1-7.5-3.1c-2.1-2.1-3.1-4.6-3.1-7.5c0-2.9,1-5.4,3.1-7.5c2.1-2.1,4.6-3.1,7.5-3.1
				c2.9,0,5.4,1,7.5,3.1c2.1,2.1,3.1,4.6,3.1,7.5c0,2.9-1,5.4-3.1,7.5S206.3,49.5,203.4,49.5z M203.4,29.8c-2.5,0-4.7,0.9-6.5,2.7
				c-1.8,1.8-2.7,3.9-2.7,6.5c0,2.5,0.9,4.7,2.7,6.5c1.8,1.8,3.9,2.7,6.5,2.7c2.6,0,4.7-0.9,6.5-2.7c1.8-1.8,2.7-3.9,2.7-6.5
				c0-2.6-0.9-4.7-2.7-6.5C208.1,30.7,206,29.8,203.4,29.8z M203.4,44.6c-1.6,0-2.9-0.6-4-1.6c-1.1-1.1-1.7-2.5-1.7-4
				c0-1.6,0.6-2.9,1.7-4c1.1-1.1,2.4-1.7,4-1.7c1.6,0,2.9,0.6,4,1.7c1.1,1.1,1.7,2.5,1.7,4c0,1.6-0.6,2.9-1.7,4
				C206.3,44.1,204.9,44.6,203.4,44.6z M203.4,34.7c-1.2,0-2.2,0.4-3,1.3l0,0c-0.8,0.8-1.3,1.8-1.3,3c0,1.2,0.4,2.2,1.3,3
				c0.8,0.8,1.8,1.2,3,1.2c1.2,0,2.2-0.4,3-1.2c0.8-0.8,1.3-1.8,1.3-3c0-1.2-0.4-2.2-1.3-3C205.6,35.1,204.6,34.7,203.4,34.7z"/>
		</g>
		<g>
			<path class="st1" d="M219.3,46.4c0,0.7-0.2,1.3-0.7,1.7c-0.5,0.5-1.1,0.7-1.7,0.7s-1.3-0.2-1.7-0.7c-0.5-0.5-0.7-1.1-0.7-1.7
				V27.1c0-0.7,0.2-1.3,0.7-1.7c0.5-0.5,1.1-0.7,1.7-0.7s1.3,0.2,1.7,0.7c0.5,0.5,0.7,1.1,0.7,1.7V46.4z"/>
			<path class="st2" d="M216.9,49.5c-0.9,0-1.6-0.3-2.2-0.9c-0.6-0.6-0.9-1.4-0.9-2.2V27.1c0-0.9,0.3-1.6,0.9-2.2
				c0.6-0.6,1.4-0.9,2.2-0.9c0.9,0,1.6,0.3,2.2,0.9c0.6,0.6,0.9,1.4,0.9,2.2v19.3c0,0.9-0.3,1.6-0.9,2.2
				C218.5,49.2,217.7,49.5,216.9,49.5z M216.9,25.4c-0.5,0-0.9,0.2-1.2,0.5c-0.3,0.3-0.5,0.7-0.5,1.2v19.3c0,0.5,0.2,0.9,0.5,1.2
				c0.3,0.3,0.7,0.5,1.2,0.5c0.5,0,0.9-0.2,1.2-0.5c0.3-0.3,0.5-0.7,0.5-1.2V27.1c0-0.5-0.2-0.9-0.5-1.2
				C217.8,25.5,217.4,25.4,216.9,25.4z"/>
		</g>
		<g>
			<g>
				<g>
					<path class="st3" d="M89.2,25.3c-1,1-2.1,1.4-3.4,1.4c-1.4,0-2.5-0.5-3.5-1.4c-1-1-1.4-2.1-1.4-3.5c0-4.4,1.6-8.2,4.7-11.3
						c3.1-3.1,6.9-4.7,11.3-4.7c4.4,0,8.2,1.6,11.3,4.7c3.5,3.5,5.2,8.7,4.7,13.7c-0.5,5.7-3.7,9.5-9,11.5
						c-3.5,1.3-7.3,1.3-10.8,2.9c-1.5,0.7-2,1.9-1.7,3.5c0.3,1.7,3.1,2.5,4.4,2.5c4.3-0.1,8.3-0.1,12.5-0.1c0.1,0,0.2,0,0.4,0
						c1.4,0,2.5,0.5,3.5,1.4c1,1,1.4,2.1,1.4,3.5s-0.5,2.5-1.4,3.5c-1,1-2.1,1.4-3.5,1.4c-2.5,0-5.1,0-7.6,0c-3.5,0-7,0.3-10.4-0.3
						c-3.2-0.5-5.9-1.1-7.9-3.6c-1.7-2.1-2.8-4.5-2.7-7.3c0.1-2,0.6-4.1,1.6-5.8c3-5.2,8.9-7,14.3-8.5c2.3-0.6,4.1-1.1,4.9-1.8
						c1.4-1.1,2.1-2.8,2.1-5c0-1.7-0.6-3.2-1.8-4.4c-1.2-1.2-2.7-1.8-4.4-1.8c-1.7,0-3.2,0.6-4.4,1.8c-1.2,1.2-1.8,2.7-1.8,4.4
						C90.6,23.2,90.1,24.3,89.2,25.3z"/>
					<path class="st2" d="M96.3,54.9c-1.9,0-3.8-0.1-5.7-0.4c-3.4-0.6-6.2-1.2-8.4-3.8c-2-2.4-2.9-5-2.8-7.8
						c0.1-2.1,0.7-4.3,1.7-6.2c3.2-5.6,9.6-7.4,14.8-8.8l0.1,0c2.2-0.6,3.9-1,4.6-1.6c1.2-1,1.8-2.4,1.8-4.5c0-1.5-0.5-2.8-1.6-3.9
						c-1.1-1.1-2.3-1.6-3.9-1.6c-1.5,0-2.8,0.5-3.9,1.6c-1.1,1.1-1.6,2.4-1.6,3.9c0,1.5-0.6,2.9-1.7,4c-1.1,1.1-2.4,1.6-3.9,1.6
						c-1.5,0-2.9-0.5-4-1.6c-1.1-1.1-1.6-2.4-1.6-4c0-4.6,1.6-8.6,4.9-11.8s7.2-4.9,11.8-4.9c4.6,0,8.6,1.6,11.8,4.9
						c3.5,3.5,5.4,9,4.9,14.2c-0.5,5.8-3.7,9.9-9.5,12c-1.7,0.6-3.4,1-5,1.3c-2,0.4-3.9,0.8-5.7,1.6c-1.1,0.5-1.6,1.4-1.3,2.7
						c0.3,1.2,2.6,1.9,3.8,1.9c1.3,0,2.5,0,3.8-0.1c3,0,5.8-0.1,8.7-0.1h0.4c1.5,0,2.9,0.5,4,1.6c1.1,1.1,1.6,2.4,1.6,4
						s-0.5,2.9-1.6,4c-1.1,1.1-2.4,1.6-4,1.6h-7.6c-0.8,0-1.6,0-2.4,0C97.9,54.9,97.1,54.9,96.3,54.9z M96.8,14.9
						c1.9,0,3.5,0.7,4.9,2c1.4,1.4,2,3,2,4.9c0,2.5-0.8,4.3-2.4,5.6c-1,0.7-2.7,1.2-5.1,1.9l-0.1,0c-4.9,1.3-11,3-13.9,8.1
						c-1,1.7-1.5,3.6-1.5,5.5c-0.1,2.4,0.8,4.7,2.5,6.8c1.8,2.2,4.3,2.8,7.5,3.3c2.6,0.4,5.2,0.4,7.9,0.4c0.8,0,1.6,0,2.5,0h7.6
						c1.2,0,2.2-0.4,3-1.2c0.8-0.8,1.2-1.8,1.2-3s-0.4-2.2-1.2-3c-0.8-0.8-1.8-1.2-3-1.2h-0.4c-2.9,0-5.7,0-8.7,0.1
						c-1.2,0-2.5,0-3.8,0.1c0,0,0,0,0,0c-1.5,0-4.6-0.9-5.1-3c-0.4-1.9,0.3-3.5,2.1-4.3c2-0.9,4-1.3,6-1.7c1.7-0.3,3.3-0.6,4.8-1.2
						c5.2-2,8.1-5.6,8.6-10.9c0.4-4.9-1.3-9.9-4.5-13.1c-3-3-6.6-4.5-10.8-4.5C92.6,6.5,89,8,86,11c-3,3-4.5,6.6-4.5,10.8
						c0,1.2,0.4,2.2,1.2,3s1.8,1.2,3,1.2c1.2,0,2.1-0.4,2.9-1.2l0,0c0.8-0.8,1.3-1.8,1.3-3c0-1.9,0.7-3.6,2-4.9
						C93.3,15.6,94.9,14.9,96.8,14.9z"/>
				</g>
			</g>
			<g>
				<path class="st0" d="M108.4,50.5h-3.1v-1.7h3.1V50.5z M102.1,50.5H99v-1.7h3.1V50.5z M95.8,50.5h-1.3c-0.7,0-1.3,0-2-0.1
					l0.2-1.7c0.6,0.1,1.2,0.1,1.8,0.1h1.3V50.5z M89.4,49.6c-1.1-0.5-2.1-1.1-2.9-1.9l1.2-1.2c0.6,0.6,1.4,1.1,2.3,1.5L89.4,49.6z
					 M84.7,44.6c0-0.2-0.1-0.2-0.1-0.2c-0.1-0.6-0.2-1.3-0.2-1.9c0-0.5,0-0.9,0.1-1.3l1.7,0.3c-0.1,0.3-0.1,0.7-0.1,1.1
					c0,0.5,0.1,1,0.2,1.6c0,0,0,0.1,0,0.1L84.7,44.6z M87.3,38.9l-1.4-1c0.6-0.9,1.4-1.7,2.4-2.4l1,1.4
					C88.4,37.5,87.7,38.2,87.3,38.9z M91.8,35.4L91,33.8c0.9-0.4,2-0.8,3.1-1.1l0.5,1.7C93.6,34.6,92.6,35,91.8,35.4z M97.5,33.7
					L97.3,32c1-0.2,2-0.4,2.9-0.7l0.6,1.6C99.8,33.3,98.7,33.5,97.5,33.7z M103.7,31.5l-1-1.4c0.8-0.5,1.5-1.2,2.1-1.9l1.3,1.1
					C105.5,30.1,104.7,30.8,103.7,31.5z M108,26.3l-1.6-0.7c0.5-1.1,0.7-2.1,0.7-2.8l1.7,0.2C108.7,23.8,108.5,25,108,26.3z
					 M86.4,22.3l-1.7,0c0-0.1,0-1.4,0.5-3.3l1.7,0.4C86.4,21.1,86.4,22.3,86.4,22.3z M106.9,19.9c-0.2-1-0.4-2-0.8-2.8l1.6-0.7
					c0.4,1,0.7,2.1,0.9,3.2L106.9,19.9z M87.9,16.7l-1.6-0.8c0.5-1,1.2-2,1.9-2.8l1.3,1.2C88.9,15,88.3,15.8,87.9,16.7z M104.7,14.7
					c-0.6-0.7-1.3-1.4-2.1-1.9l1-1.4c1,0.6,1.8,1.4,2.5,2.3L104.7,14.7z M91.7,12.4L90.8,11c0.9-0.6,2-1,3.1-1.3l0.5,1.7
					C93.4,11.6,92.5,12,91.7,12.4z M100,11.5c-1.3-0.4-2.3-0.5-2.9-0.6l0.1-1.7c0.6,0,1.8,0.2,3.3,0.7L100,11.5z"/>
			</g>
		</g>
	</g>
</g>
</svg>
