<?xml version="1.0" encoding="utf-8"?>
<!-- Generator: Adobe Illustrator 21.0.2, SVG Export Plug-In . SVG Version: 6.00 Build 0)  -->
<svg version="1.1" id="Layer_1" xmlns="http://www.w3.org/2000/svg" xmlns:xlink="http://www.w3.org/1999/xlink" x="0px" y="0px"
	 viewBox="0 0 24 24" style="enable-background:new 0 0 24 24;" xml:space="preserve">
<style type="text/css">
	.st0{fill:#FCB514;}
	.st1{fill:#231F20;}
	.st2{fill:#007658;}
	.st3{fill:#3C5162;}
	.st4{fill:#F0F0F0;}
</style>
<g>
	<g>
		<path class="st0" d="M-78.8-134.4c-0.1-16.5-0.4-33.1,0.4-49.6c0.2-4.4,0.9-8.7,1.3-13.1c1.5-2.1,3.8-3.5,5.8-5
			c1.1,1.4,1.3,3.5,3.3,4.3c5.4,2.1,10.5,2.2,15.3-1.6c7.6-5.9,12.3-13.9,16.3-22.4c0.7-1.5,2.5-3.3,1-5.4c0.7-0.9,1.8-1.1,2.8-1.3
			c10.7-3.1,21.7-4.5,32.8-5c13.1-0.6,26.1-0.3,39.1,1.9c5.8,1,11.6,2.1,16.9,4.7c-2.4,0.3-1.1,1.9-0.8,2.8
			c3.4,8.9,8.6,16.7,15.4,23.4c5.5,5.5,17.7,6.7,20.6-1.4c2,1.4,4,2.9,5.7,4.8c2.2,19.1,1.3,38.3,1.4,57.4c0,1.8-0.2,3.7-0.3,5.5
			c-0.9-0.3-1.7-0.7-2.6-0.9c-1.6-0.4-3.3-1.1-4.5,0.5c-1.2,1.6-0.7,3.3,0.1,4.9c0.3,0.6,0.7,1,1.2,1.7c-2.4,0-3.9,0.8-4.4,3.2
			c-2.3,9.4-3.3,19.1-4.9,28.6c-1.9,11.6-2.1,23.2-2.4,34.9c-0.2,8.1-0.2,16.2,0.4,24.3c0.1,1.7,0.4,3.4,2.7,3
			c3.9-0.6,6.7-2.4,7.5-6.8c1.3-6.9,1.4-13.8,1.8-20.7c1.2-20.8,2.6-41.6,2.9-62.4c0-2.9,1.3-2.4,3-1.4c-0.7,1.3-0.4,2.7-0.4,4.1
			c0,24.4,0,48.9-0.1,73.3c0,1,0.4,2.1-0.5,3c-4.1-2.4-5.1-1.8-5.1,3.1c0,0.9-0.1,1.9,0,2.8c0.1,1.3-0.4,2.8,1.3,3.7
			c1.7,0.9,2.7-0.3,3.5-1.4c1.1,1.1,0.7,2.2,0.7,3.2c0,68.1,0,86.8,0,155c0,49.1,0,65.5,0,114.7c0,1.7-0.1,3.5-0.2,5.2
			c-4.8-0.4-9.7-0.6-14.5-1.3c-3-0.4-3.3,0.6-3.2,3.1c0.3,5.7,0.4,11.3,0.7,17c0.1,1.6,0,2.8-2.1,3.2c-8.2,1.5-16.4,2.6-24.7,3.1
			c-20.7,1.2-41.3,2-62.1,1.2c-17.1-0.7-34.2-1.2-51.1-4.3c-2-0.4-3.2-0.9-2.9-3.3c0.8-5.6,0.5-11.3,0.8-17c0.2-2.4-0.6-3.3-3.1-3
			c-4.9,0.6-9.9,0.9-14.9,1.4c0-35.5-0.1-70.9-0.1-106.4c0-69.5,0-57,0-126.5c0-44.6,0-89.2,0-133.8c1.3-0.4,3-1.8,2.9,1.2
			c-0.5,16.1,1.7,32.1,2,48.2c0.2,10.8,1.2,21.5,2,32.2c0.5,6.3,2.6,8.4,7.7,9.4c2.2,0.4,3.1-0.5,3.2-2.4
			c0.9-15.1,0.7-30.1-0.4-45.1c-0.8-11.6-2.7-23.2-4.7-34.7c-0.7-4.1-0.3-9-4.5-12c-0.6-0.5-0.2-1.3-0.1-1.9c0.9-4.8-0.5-6-5.1-4.6
			C-76.8-135-77.8-134.7-78.8-134.4z M15-228.9c12,0.7,23.8,2.6,36.1,4.5c-0.6-2.2-1.9-2.9-3.3-3.6c-3.5-1.7-7.4-1.7-11.1-2.3
			c-7.3-1.1-14.6-2.3-22-1c-2.9-1-5.9-0.5-8.9-0.3c-10.6-0.7-20.9,1.5-31.3,2.9c-1.9,0.3-4.4,1.1-5.1,4.4c11.7-2.6,23.2-3.6,34.7-4
			c0.5,0,1-0.5,1.5-0.8C8.6-228.1,11.8-228.5,15-228.9z M76.3-60.9c-0.2,0-0.4,0-0.5,0c0,9.5,0,19,0.1,28.5c0,1.3-1.1,3.6,1.2,3.6
			c1.9,0,1-2.2,1-3.5c0.1-10.7,0.1-21.3,0.1-32c0-19.6,1.2-39,5.7-58.2c2.1-8.8,3.9-17.6,3.3-26.8c-0.5-6.7-2.9-12.2-9.7-14.6
			c-11.9-4.3-24.4-6.4-36.9-7.9c-13.3-1.7-26.7-2.6-40.2-1.7c-7.9,0.5-15.7,0.8-23.5,1.8c-9.8,1.3-19.5,3.6-29.2,5.8
			c-9.6,2.2-14.3,7.9-14.8,17.7c-0.4,7.6,1.1,15,2.6,22.4c2.4,12.1,4.8,24.3,6.3,36.5c0.2,1.4-0.5,4.1,1.6,3.9
			c1.8-0.2,0.7-2.8,0.5-4.2c-0.5-3.2,0.5-4.4,3.8-4.5c4.7-0.2,9.5-0.7,14.2-1.3c15.2-2.2,30.4-3.2,45.7-3.4
			c22.2-0.3,44.1,2.6,66.1,4.9c2.1,0.2,2.9,1,2.9,3.3C76.2-80.6,76.3-70.8,76.3-60.9z M77.1,89.5c0,49.1,0,65.6,0,114.7
			c0,1.4-0.1,2.8,0.1,4.2c0.6,3.4,2.5,6,5.8,7.2c3.1,1.1,6,0.3,8.3-2.1c2.3-2.4,2.7-5.5,2.7-8.7c0-52.7,0.1-72.8,0.1-125.5
			c0-38.7-0.1-28-0.1-66.7c0-7.5,0.1-15,0-22.5c-0.1-6.7-4.7-10.5-10.8-9.1c-3.8,0.9-6.1,4.4-6.1,9.7C77.1,40.1,77.1,40.1,77.1,89.5
			z M-56-3.7C-56-3.7-56-3.7-56-3.7c0-2.5,0.1-5.1-0.1-7.6c-0.3-4.4-3.6-7.7-7.7-8c-4.4-0.3-7.6,2.4-8.4,6.9c-0.3,1.5-0.4,3-0.4,4.5
			c0,20.2,0,40.3,0,60.5c0,28.3,0,7.2,0,35.4c0,49.3,0,65.8,0,115.1c0,1.7,0.1,3.5,0.4,5.2c0.8,4.5,4.8,7.1,9.2,6.2
			c4.8-0.9,6.9-4,6.9-10.1c0-40.9,0-49.1,0-90C-56,58.5-56,52.1-56-3.7z M8.4,240.3c19-0.3,36-1.3,53.1-2.4c3.1-0.2,6.3-0.2,9.1-1.9
			c2.6-1.7,3.7-5,2.6-8.7c-0.8-2.8-3.3-2.1-5.2-2.1c-9.3,0-18.5,0.9-27.7,1.3c-26.2,1.2-52.3,1.1-78.4-1.1
			c-3.9-0.3-7.9-0.2-11.8-0.2c-1.4,0-2.8,0.3-3.2,2c-1.4,5.6,0.8,9.1,6.6,9.9C-27.7,239.5-8.7,239.5,8.4,240.3z M-77.1-40.8
			c0,0.9,0,1.8,0,2.8c0,1.4,0.3,2.6,2,2.6c1.8,0.1,2.3-1.1,2.3-2.7c0-1.7,0.1-3.5-0.1-5.2c-0.1-1.3-0.3-2.9-2.3-2.9
			c-2.2,0-1.8,1.6-1.9,2.9C-77.1-42.4-77.1-41.6-77.1-40.8z"/>
		<path class="st1" d="M9.5,269.7c-5.7,0-11.5-0.1-17.3-0.3l-2.6-0.1c-16-0.6-32.6-1.3-48.8-4.3c-1.4-0.3-5.2-1-4.5-5.6
			c0.5-3.3,0.5-6.7,0.6-10.2c0-2.2,0.1-4.4,0.2-6.6c0-0.5,0-0.8,0-1c-0.2,0-0.4,0-0.9,0c-3.5,0.4-7.1,0.7-10.5,1
			c-1.5,0.1-2.9,0.2-4.4,0.4l-2.2,0.2l0-35.5c0-24.4-0.1-48.7-0.1-73.1c0-42.8,0-54.5,0-73.4l0-53.1l0-135.3l1.4-0.4
			c0.2-0.1,0.4-0.1,0.6-0.2c0.9-0.4,2.3-1,3.6-0.1c1.4,1,1.3,2.8,1.3,3.5c-0.3,9.5,0.4,19.2,1,28.5c0.4,6.4,0.9,13,1,19.6
			c0.2,9.4,1,18.9,1.7,28.1l0.3,4c0.4,5.5,2,6.8,6.1,7.6c0.4,0.1,0.6,0.1,0.7,0.1c0-0.1,0.1-0.3,0.1-0.6c0.8-14.4,0.7-29.5-0.4-44.9
			c-0.8-11.6-2.8-23.4-4.7-34.5c-0.2-0.9-0.3-1.8-0.4-2.7c-0.4-3.3-0.7-6.1-3.3-8c-1.6-1.2-1.1-3-1-3.6c0-0.1,0.1-0.2,0.1-0.3
			c0.3-1.9,0.2-2.6,0.1-2.8c-0.2,0-0.9-0.1-2.7,0.4c-0.7,0.2-1.3,0.4-2,0.6l-3.5,1.1l-0.1-9.5c-0.1-14.1-0.2-28.6,0.5-42.9
			c0.2-3.1,0.5-6.1,0.9-9.1c0.2-1.4,0.3-2.7,0.5-4.1l0.1-0.5l0.3-0.4c1.3-1.9,3.1-3.2,4.7-4.4c0.5-0.4,1-0.7,1.4-1.1l1.6-1.3
			l1.2,1.6c0.5,0.6,0.8,1.3,1.1,1.9c0.5,1.1,0.8,1.5,1.3,1.7c5.3,2.1,9.6,1.7,13.4-1.3c7.8-6,12.3-14.3,15.7-21.7
			c0.2-0.4,0.4-0.8,0.6-1.2c0.9-1.4,0.9-1.8,0.6-2.2l-0.8-1.2l0.9-1.2c1-1.3,2.4-1.7,3.4-1.9c0.1,0,0.3-0.1,0.4-0.1
			c9.9-2.9,20.8-4.6,33.2-5.1c15.3-0.7,27.8-0.1,39.5,1.9c6,1,11.8,2.2,17.5,4.8l6.1,2.9l-6,0.8c0,0.1,0.1,0.2,0.1,0.2
			c3.1,8.3,8.1,15.9,14.9,22.7c2.9,2.9,8.2,4.5,12.2,3.5c1.8-0.4,4.1-1.4,5.1-4.2l0.9-2.4l2.1,1.5c1.8,1.2,4,2.9,6,5.1l0.4,0.5
			l0.1,0.6c1.7,14.7,1.6,29.6,1.5,44c0,4.5-0.1,9.1,0,13.6c0,1.3-0.1,2.7-0.2,4c0,0.6-0.1,1.1-0.1,1.7l-0.2,2.6l-2.5-0.9
			c-0.3-0.1-0.5-0.2-0.8-0.3c-0.6-0.2-1.1-0.4-1.6-0.6l-0.4-0.1c-1.6-0.4-1.8-0.3-2-0.1c-0.3,0.4-0.6,1,0.3,2.8
			c0.1,0.2,0.3,0.5,0.5,0.8c0.2,0.2,0.3,0.4,0.5,0.7l1.3,1.8c0.1-0.1,0.2-0.2,0.4-0.2c1.6-0.9,3.3,0.1,4.3,0.7l1.7,1l-0.9,1.7
			c-0.3,0.5-0.2,1.1-0.2,2.1c0,0.4,0,0.7,0,1.1c0,12.5,0,24.9,0,37.4c0,12,0,24,0,36c0,0.2,0,0.4,0,0.5c0.1,0.9,0.2,2.5-1,3.8
			l-1.1,1.1L97-43.3c-1-0.6-1.6-0.8-1.9-1c-0.1,0.4-0.2,1.1-0.2,2.3l0,0.7c0,0.7,0,1.3,0,1.9c0,0.4,0,0.7,0,1.1c0,0.3,0,0.7,0,0.9h0
			c0,0,0,0,0.1,0.1c0.2,0.1,0.2,0.1,0.2,0.1c0.1-0.1,0.6-0.7,0.8-1l1.4-1.8l1.6,1.6c1.6,1.5,1.4,3.2,1.4,4.1c0,0.2,0,0.3,0,0.4
			c0,40.2,0,63.2,0,89.3l0,65.7c0,24.2,0,40.5,0,56.6c0,16.6,0,33.1,0,58c0,1.2-0.1,2.5-0.1,3.7c0,0.5-0.1,1.1-0.1,1.6l-0.1,2.1
			l-2.1-0.2c-1.4-0.1-2.9-0.2-4.3-0.3c-3.4-0.2-6.9-0.5-10.3-1c-0.4-0.1-0.7-0.1-0.9-0.1c0,0.2,0,0.5,0,1.1c0.2,3.7,0.3,7.4,0.4,11
			c0.1,2,0.1,4,0.2,6.1c0.1,1.4,0.2,4.5-3.8,5.3c-9.3,1.7-17.5,2.7-25,3.2C40.2,268.9,25.1,269.7,9.5,269.7z M-59.6,260.7
			c0,0,0.3,0.1,1.3,0.3c15.9,2.9,32.3,3.6,48.2,4.2l2.6,0.1c21.4,0.8,42.4-0.1,61.9-1.2c7.3-0.4,15.4-1.4,24.5-3.1
			c0.2,0,0.4-0.1,0.5-0.1c0-0.3,0-0.8,0-1c-0.1-2-0.1-4.1-0.2-6.1c-0.1-3.6-0.2-7.3-0.4-10.9c-0.1-1.1-0.2-3.1,1.2-4.4
			c1.2-1.1,3-1,4.3-0.8c3.3,0.5,6.7,0.7,10,1c0.8,0.1,1.5,0.1,2.3,0.2c0.1-1,0.1-2,0.1-3c0-24.9,0-41.4,0-58c0-16.2,0-32.4,0-56.6
			l0-65.7c0-26,0-48.9,0-88.9c-0.9,0.3-2,0.3-3.2-0.4c-1.1-0.6-1.7-1.4-2-2.2c-1.6,2-3.9,3.2-7.2,3.7c-1.4,0.2-2.5,0-3.4-0.7
			c-0.2-0.2-0.4-0.4-0.6-0.6c0,0.5,0,0.9,0,1.4c0,0.1,0,0.4,0.1,0.7c0.1,1.1,0.3,2.6-0.7,3.7c-0.4,0.5-1.2,1-2.4,1c0,0,0,0,0,0
			c-1.4,0-2.2-0.6-2.7-1.1c-1-1.2-0.8-2.8-0.6-3.8c0-0.2,0.1-0.6,0.1-0.7c-0.1-7.2-0.1-14.6-0.1-21.7l0-8.8h0.5c0-2,0-3.9,0-5.9
			c0-7.1,0-14.5,0.1-21.7c0-0.8-0.1-1.1-0.1-1.1c0,0-0.1-0.1-1-0.2c-3.2-0.3-6.5-0.7-9.7-1.1c-18.4-2-37.4-4.1-56.2-3.8
			c-16.3,0.2-31.1,1.4-45.4,3.4c-4.9,0.7-9.8,1.2-14.4,1.3c-1.6,0.1-1.8,0.4-1.8,0.4c0,0-0.3,0.3,0,1.8c0,0.2,0.1,0.5,0.2,0.8
			c0.3,1.4,0.8,3-0.2,4.4c-0.5,0.7-1.3,1.2-2.2,1.3c-1.3,0.2-2.2-0.3-2.7-0.7c-0.2-0.2-0.3-0.4-0.5-0.5c0.1,0.8,0.1,1.6,0.2,2.4
			c1.1,15.6,1.2,30.9,0.4,45.4c-0.1,1.6-0.6,2.8-1.6,3.6c-1,0.8-2.3,1-4,0.7c-3-0.6-5.1-1.6-6.6-3.3c-0.2,0.5-0.5,0.9-0.9,1.3
			c-0.5,0.5-1.5,1.1-3.1,1.1c-0.4,0-1-0.1-1.7-0.4l0,42.1l0,53.1c0,18.9,0,30.6,0,73.4c0,24.4,0,48.7,0.1,73.1l0,31.1
			c0.7-0.1,1.5-0.1,2.2-0.2c3.4-0.3,7-0.6,10.4-1c1.2-0.1,2.9-0.2,4.1,1c1.2,1.2,1.3,2.9,1.2,4.2c-0.1,2.1-0.2,4.3-0.2,6.4
			c-0.1,3.5-0.1,7.1-0.6,10.7C-59.7,260.5-59.6,260.7-59.6,260.7C-59.6,260.7-59.6,260.7-59.6,260.7z M92.3-126.2
			c-1.8,0-2.2,0.5-2.4,1.6c-1.6,6.5-2.6,13.3-3.5,19.8c-0.4,2.8-0.8,5.8-1.3,8.7c-1.8,11-2.1,22.5-2.4,33.5l0,1.2
			c-0.2,9.3-0.1,17,0.4,24.1c0,0.6,0.1,1,0.2,1.2c0.1,0,0.1,0,0.3,0c3.6-0.6,5.3-2,5.9-5.2c1-5.2,1.3-10.7,1.5-15.9
			c0.1-1.5,0.1-3,0.2-4.5c0.2-3.9,0.4-7.8,0.7-11.8c1-16.6,2-33.7,2.2-50.5c0-0.4,0-1.3,0.3-2.1L92.3-126.2
			C92.4-126.2,92.3-126.2,92.3-126.2z M-63.1-36.3L-63.1-36.3L-63.1-36.3z M-74.9-37.3L-74.9-37.3L-74.9-37.3z M-75-37.4
			C-75-37.4-75-37.4-75-37.4c0.1,0,0.1,0,0.2,0c0-0.1,0.1-0.3,0.1-0.7c0-0.6,0-1.1,0-1.7c0-1.1,0-2.2-0.1-3.2c0-0.3-0.1-0.7-0.1-1
			c0,0.1,0,0.2,0,0.2c0,0.2,0,0.5,0,0.7c0,0.5,0,1,0,1.5l0,1.6c0,0.7,0,1.3,0,2C-75.1-37.7-75.1-37.6-75-37.4z M-74.7-37.5
			L-74.7-37.5L-74.7-37.5z M-75.2-37.5L-75.2-37.5L-75.2-37.5z M-76.9-94.9l0,47c0.5-0.2,1.1-0.3,1.7-0.3c0.3,0,0.7,0,1,0.1
			c-0.7-9.2-1.5-18.7-1.7-28C-76-82.4-76.4-88.7-76.9-94.9z M94.6-48.4c0.6,0,1.2,0.1,1.8,0.4c0-12,0-24,0-35.9c0-0.9,0-1.7,0-2.6
			c-0.2,4.4-0.5,8.9-0.8,13.3c-0.2,3.9-0.5,7.8-0.7,11.8c-0.1,1.5-0.2,3-0.2,4.5c-0.1,2.9-0.3,5.8-0.5,8.7
			C94.4-48.4,94.5-48.4,94.6-48.4z M10.9-100.7c17.9,0,35.8,2,53.1,3.9c3.2,0.4,6.5,0.7,9.7,1.1c1.7,0.2,2.9,0.7,3.6,1.7
			c0.9-10.4,2.5-19.8,4.6-28.8c2.1-8.7,3.8-17.3,3.2-26.2c-0.5-6.9-3.1-11-8.4-12.9c-12.2-4.4-24.7-6.4-36.4-7.8
			c-15.3-1.9-27.9-2.4-39.8-1.7c-1.8,0.1-3.6,0.2-5.3,0.3c-5.9,0.4-12.1,0.7-18.1,1.5c-9.5,1.3-19,3.5-28.2,5.6l-0.8,0.2
			c-8.7,2-12.8,6.9-13.3,15.9c-0.4,7.4,1.1,14.8,2.5,21.9c2.1,10.6,4.2,21.1,5.7,31.6c1.3-1.2,3.1-1.4,4.4-1.5
			c4.5-0.2,9.2-0.6,14-1.3c14.5-2.1,29.5-3.2,45.9-3.4C8.6-100.7,9.7-100.7,10.9-100.7z M-68.8-129.9c0.7,0.6,1.2,1.2,1.7,1.8
			c-1.3-6.5-2.4-13.1-2-20.1c0.6-10.8,5.9-17.2,16.3-19.6l0.8-0.2c9.3-2.2,18.9-4.4,28.6-5.7c6.1-0.8,12.3-1.2,18.3-1.5
			c1.8-0.1,3.5-0.2,5.3-0.3c12.1-0.8,25-0.3,40.6,1.7c11.4,1.4,24.7,3.5,37.3,8c6.8,2.5,10.4,7.8,11,16.3c0.5,7.3-0.5,14.4-1.9,21.3
			c0.5-0.6,1.1-1.1,1.9-1.5c-0.6-1.4-1.5-4,0.4-6.5c1.9-2.5,4.7-1.7,6.2-1.3l0.4,0.1c0.1,0,0.2,0.1,0.3,0.1c0.1-0.9,0.1-1.8,0.1-2.7
			c0-4.6,0-9.2,0-13.7c0.1-14.1,0.2-28.6-1.4-42.9c-1-1-2-1.9-3-2.7c-1.5,2.2-3.8,3.8-6.8,4.4c-5.4,1.2-12.1-0.7-15.9-4.6
			c-7.2-7.2-12.5-15.3-15.8-24.1c0-0.1-0.1-0.2-0.2-0.3c-0.1-0.2-0.2-0.4-0.3-0.7l0.7,2.6l-5-0.8c-11.6-1.8-22.5-3.5-33.7-4.2
			c-2.7,0.3-5.9,0.7-9.2,0c-0.4,0.3-1,0.6-1.8,0.6c-13.1,0.4-24,1.6-34.3,3.9l-3,0.7l0.6-3c0.1-0.6,0.3-1.2,0.6-1.9
			c-0.2,0-0.3,0.1-0.5,0.1c-0.1,0-0.2,0.1-0.3,0.1c0.4,1.9-0.6,3.6-1.2,4.6c-0.2,0.3-0.3,0.6-0.5,0.8c-3.6,7.8-8.5,16.6-16.9,23.1
			c-5,3.9-10.6,4.5-17.3,1.8c-1.8-0.7-2.6-2-3.2-3.2c-1.2,0.9-2.3,1.8-3.2,2.8c-0.1,1.2-0.3,2.4-0.4,3.6c-0.3,2.9-0.7,5.9-0.8,8.8
			c-0.7,14.2-0.6,28.7-0.5,42.7l0,4.1c0.1,0,0.3-0.1,0.4-0.1c2.1-0.6,4.8-1.1,6.5,0.4c1.7,1.6,1.5,4.3,1.1,6.5
			C-68.7-130.2-68.8-130-68.8-129.9z M56.2-225L56.2-225L56.2-225z M52.4-226.4c0.2,0.3,0.3,0.7,0.4,1c0-0.3-0.1-0.6,0-0.9
			C52.7-226.3,52.5-226.4,52.4-226.4z M8.4,242.3L8.4,242.3c-4.5-0.2-9.1-0.4-13.9-0.5c-13.4-0.4-27.3-0.9-41.3-2.7
			c-3.4-0.4-5.9-1.7-7.3-3.9c-1.5-2.2-1.8-5-1-8.5c0.6-2.3,2.3-3.5,5.1-3.5l1.7,0c3.4,0,6.9,0,10.3,0.2c23.7,2,49.3,2.3,78.2,1.1
			c3.3-0.1,6.6-0.4,9.9-0.6c5.9-0.4,11.9-0.8,17.9-0.8c0.3,0,0.6,0,0.9,0c1.7-0.1,5.2-0.3,6.3,3.6c1.3,4.5-0.1,8.7-3.5,10.9
			c-2.9,1.8-6.1,2-8.9,2.2c-0.4,0-0.7,0-1.1,0.1C45.3,240.9,27.7,242,8.4,242.3L8.4,242.3z M-45.5,227.2c-0.9,0-1.9,0-2.8,0l-1.7,0
			c-1.2,0-1.2,0.2-1.3,0.5c-0.6,2.3-0.4,4.1,0.4,5.2c0.8,1.1,2.3,1.9,4.5,2.2c13.8,1.8,27.6,2.2,40.9,2.6c4.8,0.2,9.3,0.3,13.8,0.5
			c19.1-0.3,36.7-1.3,53-2.4c0.4,0,0.7,0,1.1-0.1c2.6-0.1,5-0.3,7-1.6c1.9-1.2,2.6-3.7,1.8-6.4c-0.2-0.6-0.2-0.8-2.2-0.7
			c-0.4,0-0.8,0-1.1,0c-5.9,0-11.8,0.4-17.6,0.8c-3.3,0.2-6.6,0.4-10,0.6c-29,1.3-54.8,0.9-78.7-1.1
			C-40.6,227.2-43.1,227.2-45.5,227.2z M85.7,218c-1.1,0-2.2-0.2-3.4-0.6c-3.9-1.4-6.3-4.4-7.1-8.7c-0.2-1.2-0.2-2.4-0.2-3.6
			c0-0.3,0-0.6,0-0.9c0-42.6,0-60.6,0-96.6V58.3c0-21.8,0-31.5,0-67.6c0-6.3,2.8-10.6,7.6-11.7c3.5-0.8,6.7-0.2,9.2,1.8
			c2.6,2,4.1,5.3,4.1,9.3C96-4.8,96,0.3,96,5.3c0,2.4,0,4.9,0,7.3c0,17.5,0,24.9,0.1,31.3c0,7.8,0,14.2,0,35.4c0,26.2,0,44.4,0,62.5
			c0,18.3,0,36.5,0,63c0,3.1-0.4,7-3.3,10.1C90.7,216.9,88.3,218,85.7,218z M85.6-17.3c-0.6,0-1.3,0.1-2,0.2
			c-3.9,0.9-4.5,5.3-4.5,7.8c0,36,0,45.8,0,67.6v49.3c0,36,0,54,0,96.6c0,0.3,0,0.6,0,1c0,1,0,2,0.1,2.9c0.5,2.9,2,4.8,4.5,5.7
			c2.3,0.8,4.4,0.3,6.1-1.6c1.5-1.6,2.2-3.7,2.2-7.3c0-26.5,0-44.7,0-63c0-18.1,0-36.3,0-62.5c0-21.2,0-27.6,0-35.4
			c0-6.4,0-13.8-0.1-31.3c0-2.4,0-4.9,0-7.3c0-5,0-10.1,0-15.1c0-2.7-0.9-4.9-2.6-6.2C88.4-16.9,87.1-17.3,85.6-17.3z M-64.6,216.6
			c-2,0-3.9-0.6-5.5-1.6c-2.1-1.4-3.6-3.7-4.1-6.4c-0.3-1.7-0.5-3.5-0.5-5.5c0-43.2,0-61.3,0-98.3l0-63.4c0-16.4,0-32.8,0-49.3
			c0-1.7,0.1-3.3,0.4-4.8c1-5.5,5.1-8.9,10.5-8.6c5.1,0.3,9.3,4.5,9.6,9.8c0.1,1.8,0.1,3.7,0.1,5.4c0,0.3,0,0.6,0,0.9l0,1.5l0,43.8
			l0,80.5c0,35.6,0,45,0,83.8c0,7-2.8,10.9-8.5,12C-63.2,216.5-63.9,216.6-64.6,216.6z M-64.3-17.3c-3.1,0-5.3,1.9-5.9,5.3
			c-0.2,1.3-0.4,2.7-0.4,4.1c0,16.4,0,32.8,0,49.3l0,11.2l0,20.4l0,31.7c0,37.1,0,55.1,0,98.3c0,1.8,0.1,3.4,0.4,4.8
			c0.3,1.6,1.1,2.9,2.4,3.8c1.3,0.9,2.9,1.2,4.5,0.8c3.2-0.6,5.3-2.2,5.3-8.1c0-38.7,0-48.2,0-83.7l0-124.3c0-0.8,0-1.6,0-2.4
			c0-1.8,0.1-3.4,0-5.1c-0.2-3.3-2.6-5.9-5.8-6.1C-64-17.3-64.2-17.3-64.3-17.3z"/>
	</g>
	<g>
		<path class="st2" d="M56.2-227c-5.4-2.5-11.1-3.7-16.9-4.7c-12.9-2.2-26-2.5-39.1-1.9c-11.1,0.5-22.1,1.9-32.8,5
			c-1,0.3-2.1,0.4-2.8,1.3c-10.2,0.1-19.7,2.6-27.7,9.2c-4.9,4.1-8.7,8.9-8.3,15.9c-2,1.6-4.2,2.9-5.8,5c-1.4-3.4,0.3-6.5,1-9.7
			c1.8-7.8,4-15.4,9.5-21.5c2.8-3.1,6.3-4.7,10.4-5.8c15.2-4,30.8-5.4,46.3-6.4c14.1-0.9,28.2-0.9,42.3,0.3
			c9.9,0.9,19.8,1.5,29.6,3.3c5.5,1,11,1.8,16.3,3.3c6.6,1.9,10.5,6.9,13.2,12.8c3.1,6.7,4.8,13.9,6,21.2c0.1,0.7,0.4,1.7-0.7,2
			c-1.7-1.8-3.6-3.4-5.7-4.8c0.1-6.1-2.9-10.8-7.3-14.7C76.2-223.9,66.7-227,56.2-227z"/>
		<path class="st1" d="M-77.5-192.9l-1.4-3.3c-1.3-3.2-0.5-6.2,0.3-8.7c0.2-0.7,0.4-1.5,0.6-2.1c1.7-7.3,3.9-15.7,10-22.4
			c2.8-3.1,6.3-5,11.3-6.3c15.7-4.1,31.7-5.5,46.7-6.5c15.4-1,29.4-0.9,42.6,0.3c1.7,0.1,3.3,0.3,5,0.4c8.1,0.7,16.6,1.4,24.8,2.9
			l2.1,0.4c4.8,0.8,9.7,1.7,14.4,3c6.3,1.8,11,6.3,14.5,13.9c2.8,6,4.7,12.9,6.2,21.7l0,0.2c0.5,2.6-0.8,3.6-2,4.1l-1.2,0.4l-0.9-1
			c-1.7-1.9-3.7-3.4-5.3-4.5l-0.9-0.6l0-1.1c0.1-4.9-2-9.1-6.6-13.2c-7.2-6.5-15.9-9.6-26.6-9.7l-0.4,0l-0.4-0.2
			c-5.2-2.4-10.7-3.5-16.4-4.5c-11.4-2-23.7-2.6-38.6-1.9c-12.1,0.5-22.7,2.2-32.3,5c-0.2,0.1-0.4,0.1-0.5,0.1
			c-0.5,0.1-1,0.3-1.2,0.5l-0.6,0.8l-1,0c-10.8,0.1-19.4,2.9-26.4,8.7c-5.6,4.6-7.9,9-7.6,14.2l0.1,1l-0.8,0.6
			c-0.5,0.4-1,0.8-1.5,1.2c-1.5,1.1-2.9,2.1-3.8,3.5L-77.5-192.9z M10.1-239c-6.3,0-12.9,0.2-19.7,0.6c-14.8,0.9-30.6,2.3-45.9,6.3
			c-4.3,1.1-7.1,2.7-9.4,5.2c-5.4,6-7.5,13.5-9.1,20.6c-0.2,0.8-0.4,1.6-0.7,2.4c-0.2,0.8-0.5,1.6-0.6,2.3c0.5-0.4,0.9-0.7,1.4-1.1
			c0.2-0.2,0.4-0.3,0.6-0.5c0-8,5.1-13.2,9-16.5c7.5-6.3,16.7-9.4,28.1-9.6c0.9-0.7,1.9-1,2.6-1.2c0.1,0,0.3-0.1,0.4-0.1
			c9.9-2.9,20.8-4.6,33.2-5.1c15.3-0.7,27.8-0.1,39.5,1.9c5.9,1,11.6,2.1,17,4.6c11.3,0.1,21,3.7,28.8,10.7
			c5.1,4.5,7.7,9.5,7.9,15.2c0.6,0.4,1.3,0.9,1.9,1.4c-1.3-7.2-3.1-13-5.4-18.1c-3-6.6-6.8-10.3-12-11.8c-4.5-1.3-9.4-2.1-14-2.9
			l-2.1-0.4c-8.1-1.4-16.4-2.1-24.5-2.8c-1.7-0.1-3.3-0.3-5-0.4C25.2-238.7,17.8-239,10.1-239z"/>
	</g>
	<g>
		<path class="st3" d="M-78.7,241.1c5-0.4,9.9-0.8,14.9-1.4c2.5-0.3,3.3,0.6,3.1,3c-0.4,5.7,0,11.3-0.8,17c-0.4,2.3,0.8,2.9,2.9,3.3
			c16.9,3.1,34,3.7,51.1,4.3c20.7,0.8,41.4,0,62.1-1.2c8.3-0.5,16.5-1.6,24.7-3.1c2.1-0.4,2.2-1.6,2.1-3.2c-0.2-5.7-0.3-11.3-0.7-17
			c-0.1-2.5,0.3-3.5,3.2-3.1c4.8,0.7,9.7,0.9,14.5,1.3c1.5,13.5-5,24.1-17.5,26.1c-24.4,3.8-49.1,4-73.7,3.9
			c-14.8-0.1-29.6,0.3-44.4-0.8c-8.5-0.7-17-1.7-25.4-3.4c-9.5-1.9-15.5-10-16-20.8C-78.8,244.3-78.7,242.7-78.7,241.1z"/>
	</g>
	<g>
		<path class="st3" d="M98.9-125.4c-1.7-0.9-2.9-1.5-3,1.4c-0.3,20.8-1.7,41.6-2.9,62.4c-0.4,6.9-0.4,13.8-1.8,20.7
			c-0.9,4.4-3.6,6.1-7.5,6.8c-2.4,0.4-2.6-1.3-2.7-3c-0.5-8.1-0.6-16.2-0.4-24.3c0.3-11.7,0.5-23.4,2.4-34.9
			c1.6-9.6,2.6-19.2,4.9-28.6c0.6-2.4,2-3.2,4.4-3.2c-0.5-0.7-0.9-1.2-1.2-1.7c-0.8-1.6-1.3-3.4-0.1-4.9c1.2-1.6,2.9-0.9,4.5-0.5
			c0.9,0.2,1.7,0.6,2.6,0.9c0.2,0.5,0.2,1.4,0.9,1.2c4.8-1.1,8.7,1.1,12.8,3c1.5,0.7,2.8,1.9,3.1,3.9c0.4,3.3-0.7,4.4-4,3.7
			C106.9-123.5,103.1-125.1,98.9-125.4z"/>
	</g>
	<g>
		<path class="st3" d="M-78.8-134.4c1-0.3,2-0.7,3-1c4.6-1.4,6-0.2,5.1,4.6c-0.1,0.7-0.5,1.5,0.1,1.9c4.2,3,3.7,7.9,4.5,12
			c2,11.5,3.9,23.1,4.7,34.7c1.1,15,1.3,30.1,0.4,45.1c-0.1,1.9-1,2.9-3.2,2.4c-5.1-1-7.2-3.2-7.7-9.4c-0.8-10.7-1.7-21.5-2-32.2
			c-0.4-16.1-2.5-32.1-2-48.2c0.1-3-1.6-1.6-2.9-1.2c-4.1,1-8.3,2-12.4,3.1c-2.8,0.8-3.6-0.7-3.6-3c0-2.7,2.6-5.8,5.5-6.8
			C-85.9-133.4-82.3-133.8-78.8-134.4z"/>
	</g>
	<g>
		<path class="st3" d="M76.3-60.9c0-9.8-0.1-19.7,0.1-29.5c0-2.3-0.7-3.1-2.9-3.3c-22-2.3-44-5.3-66.1-4.9
			c-15.3,0.2-30.5,1.3-45.7,3.4c-4.7,0.7-9.4,1.1-14.2,1.3c-3.2,0.1-4.3,1.3-3.8,4.5c0.2,1.4,1.3,4-0.5,4.2
			c-2.1,0.3-1.4-2.5-1.6-3.9c-1.5-12.3-3.9-24.4-6.3-36.5c-1.5-7.3-3-14.7-2.6-22.4c0.5-9.8,5.2-15.5,14.8-17.7
			c9.7-2.2,19.4-4.5,29.2-5.8c7.8-1,15.7-1.3,23.5-1.8c13.5-0.9,26.9,0,40.2,1.7c12.5,1.6,24.9,3.6,36.9,7.9
			c6.8,2.4,9.2,7.9,9.7,14.6c0.6,9.1-1.2,18-3.3,26.8c-4.5,19.2-5.8,38.6-5.7,58.2c0,10.7,0,21.3-0.1,32c0,1.2,0.9,3.5-1,3.5
			c-2.2,0-1.2-2.4-1.2-3.6c-0.1-9.5-0.1-19-0.1-28.5C76-60.9,76.2-60.9,76.3-60.9z"/>
	</g>
	<g>
		<path class="st2" d="M77.1,89.5c0-49.4,0-49.4,0-98.7c0-5.3,2.2-8.8,6.1-9.7c6.1-1.4,10.8,2.4,10.8,9.1c0.1,7.5,0,15,0,22.5
			c0,38.7,0.1,28,0.1,66.7c0,52.7-0.1,72.8-0.1,125.5c0,3.2-0.5,6.3-2.7,8.7c-2.2,2.3-5.1,3.2-8.3,2.1c-3.3-1.2-5.2-3.8-5.8-7.2
			c-0.2-1.4-0.1-2.8-0.1-4.2C77.1,155,77.1,138.6,77.1,89.5z"/>
		<path class="st1" d="M85.7,218c-1.1,0-2.2-0.2-3.4-0.6c-3.9-1.4-6.3-4.4-7.1-8.7c-0.2-1.2-0.2-2.4-0.2-3.6c0-0.3,0-0.6,0-0.9
			c0-42.6,0-60.6,0-96.6V58.3c0-21.8,0-31.5,0-67.6c0-6.3,2.8-10.6,7.6-11.7c3.5-0.8,6.7-0.2,9.2,1.8c2.6,2,4.1,5.3,4.1,9.3
			C96-4.8,96,0.3,96,5.3c0,2.4,0,4.9,0,7.3c0,17.5,0,24.9,0.1,31.3c0,7.8,0,14.2,0,35.4c0,26.2,0,44.4,0,62.5c0,18.3,0,36.5,0,63
			c0,3.1-0.4,7-3.3,10.1C90.7,216.9,88.3,218,85.7,218z M85.6-17.3c-0.6,0-1.3,0.1-2,0.2c-3.9,0.9-4.5,5.3-4.5,7.8
			c0,36,0,45.8,0,67.6v49.3c0,36,0,54,0,96.6c0,0.3,0,0.6,0,1c0,1,0,2,0.1,2.9c0.5,2.9,2,4.8,4.5,5.7c2.3,0.8,4.4,0.3,6.1-1.6
			c1.5-1.6,2.2-3.7,2.2-7.3c0-26.5,0-44.7,0-63c0-18.1,0-36.3,0-62.5c0-21.2,0-27.6,0-35.4c0-6.4,0-13.8-0.1-31.3c0-2.4,0-4.9,0-7.3
			c0-5,0-10.1,0-15.1c0-2.7-0.9-4.9-2.6-6.2C88.4-16.9,87.1-17.3,85.6-17.3z"/>
	</g>
	<g>
		<path class="st2" d="M-56-3.7c0,55.8,0,62.2,0,118c0,40.9,0,49.1,0,90c0,6.1-2.1,9.1-6.9,10.1c-4.4,0.9-8.4-1.8-9.2-6.2
			c-0.3-1.7-0.4-3.4-0.4-5.2c0-49.3,0-65.8,0-115.1c0-28.3,0-7.2,0-35.4c0-20.2,0-40.3,0-60.5c0-1.5,0.1-3,0.4-4.5
			c0.8-4.6,4.1-7.2,8.4-6.9c4.1,0.2,7.4,3.6,7.7,8C-55.9-8.8-56-6.3-56-3.7C-56-3.7-56-3.7-56-3.7z"/>
		<path class="st1" d="M-64.6,216.6c-2,0-3.9-0.6-5.5-1.6c-2.1-1.4-3.6-3.7-4.1-6.4c-0.3-1.7-0.5-3.5-0.5-5.5c0-43.2,0-61.3,0-98.3
			l0-63.4c0-16.4,0-32.8,0-49.3c0-1.7,0.1-3.3,0.4-4.8c1-5.5,5.1-8.9,10.5-8.6c5.1,0.3,9.3,4.5,9.6,9.8c0.1,1.8,0.1,3.7,0.1,5.4
			c0,0.3,0,0.6,0,0.9l0,1.5l0,43.8l0,80.5c0,35.6,0,45,0,83.8c0,7-2.8,10.9-8.5,12C-63.2,216.5-63.9,216.6-64.6,216.6z M-64.3-17.3
			c-3.1,0-5.3,1.9-5.9,5.3c-0.2,1.3-0.4,2.7-0.4,4.1c0,16.4,0,32.8,0,49.3l0,11.2l0,20.4l0,31.7c0,37.1,0,55.1,0,98.3
			c0,1.8,0.1,3.4,0.4,4.8c0.3,1.6,1.1,2.9,2.4,3.8c1.3,0.9,2.9,1.2,4.5,0.8c3.2-0.6,5.3-2.2,5.3-8.1c0-38.7,0-48.2,0-83.7l0-124.3
			c0-0.8,0-1.6,0-2.4c0-1.8,0.1-3.4,0-5.1c-0.2-3.3-2.6-5.9-5.8-6.1C-64-17.3-64.2-17.3-64.3-17.3z"/>
	</g>
	<g>
		<path class="st2" d="M8.4,240.3c-17.1-0.8-36.1-0.7-55-3.2c-5.8-0.7-8-4.2-6.6-9.9c0.4-1.8,1.8-2,3.2-2c3.9,0,7.9-0.1,11.8,0.2
			c26.1,2.2,52.3,2.2,78.4,1.1c9.2-0.4,18.4-1.4,27.7-1.3c1.9,0,4.4-0.7,5.2,2.1c1.1,3.7,0,7-2.6,8.7c-2.8,1.8-6,1.7-9.1,1.9
			C44.5,239,27.4,240,8.4,240.3z"/>
		<path class="st1" d="M8.4,242.3L8.4,242.3c-4.5-0.2-9.1-0.4-13.9-0.5c-13.4-0.4-27.3-0.9-41.3-2.7c-3.4-0.4-5.9-1.7-7.3-3.9
			c-1.5-2.2-1.8-5-1-8.5c0.6-2.3,2.3-3.5,5.1-3.5l1.7,0c3.4,0,6.9,0,10.3,0.2c23.7,2,49.3,2.3,78.2,1.1c3.3-0.1,6.6-0.4,9.9-0.6
			c5.9-0.4,11.9-0.8,17.9-0.8c0.3,0,0.6,0,0.9,0c1.7-0.1,5.2-0.3,6.3,3.6c1.3,4.5-0.1,8.7-3.5,10.9c-2.9,1.8-6.1,2-8.9,2.2
			c-0.4,0-0.7,0-1.1,0.1C45.3,240.9,27.7,242,8.4,242.3L8.4,242.3z M-45.5,227.2c-0.9,0-1.9,0-2.8,0l-1.7,0c-1.2,0-1.2,0.2-1.3,0.5
			c-0.6,2.3-0.4,4.1,0.4,5.2c0.8,1.1,2.3,1.9,4.5,2.2c13.8,1.8,27.6,2.2,40.9,2.6c4.8,0.2,9.3,0.3,13.8,0.5
			c19.1-0.3,36.7-1.3,53-2.4c0.4,0,0.7,0,1.1-0.1c2.6-0.1,5-0.3,7-1.6c1.9-1.2,2.6-3.7,1.8-6.4c-0.2-0.6-0.2-0.8-2.2-0.7
			c-0.4,0-0.7,0-1.1,0c-5.9,0-11.8,0.4-17.6,0.8c-3.3,0.2-6.6,0.4-10,0.6c-29,1.3-54.8,0.9-78.7-1.1
			C-40.7,227.2-43.1,227.2-45.5,227.2z"/>
	</g>
	<g>
		<path class="st4" d="M-71.3-202.1c-0.4-7,3.4-11.8,8.3-15.9c8-6.6,17.5-9.1,27.7-9.2c1.5,2.1-0.3,3.9-1,5.4
			c-4,8.5-8.7,16.5-16.3,22.4c-4.8,3.7-10,3.7-15.3,1.6C-69.9-198.6-70.2-200.7-71.3-202.1z"/>
	</g>
	<g>
		<path class="st4" d="M56.2-227c10.5,0,20,3.1,27.9,10.2c4.4,3.9,7.3,8.6,7.3,14.7c-2.9,8-15.1,6.9-20.6,1.4
			c-6.7-6.8-12-14.5-15.4-23.4C55.1-225.1,53.8-226.7,56.2-227z"/>
	</g>
	<g>
		<path class="st3" d="M5.5-229.1c-0.5,0.3-1,0.8-1.5,0.8c-11.5,0.3-23,1.4-34.7,4c0.7-3.3,3.2-4.1,5.1-4.4
			c10.4-1.5,20.7-3.6,31.3-2.9C4.9-230.8,4.8-230,5.5-229.1z"/>
	</g>
	<g>
		<path class="st3" d="M14.6-231.3c7.4-1.2,14.7,0,22,1c3.7,0.5,7.6,0.6,11.1,2.3c1.5,0.7,2.8,1.4,3.3,3.6
			c-12.2-1.9-24.1-3.8-36.1-4.5C15.6-229.8,16.3-230.8,14.6-231.3z"/>
	</g>
	<g>
		<path class="st4" d="M-77.1-40.8c0-0.8,0-1.6,0-2.4c0.1-1.3-0.3-2.9,1.9-2.9c2,0,2.1,1.6,2.3,2.9c0.2,1.7,0.1,3.4,0.1,5.2
			c0,1.6-0.4,2.8-2.3,2.7c-1.6-0.1-2-1.2-2-2.6C-77-39-77.1-39.9-77.1-40.8z"/>
	</g>
	<g>
		<path class="st4" d="M14.6-231.3c1.7,0.5,1,1.5,0.4,2.4c-3.2,0.4-6.4,0.7-9.5-0.2c-0.6-0.9-0.6-1.8,0.2-2.6
			C8.6-231.8,11.6-232.3,14.6-231.3z"/>
	</g>
</g>
</svg>
