<?xml version="1.0" encoding="utf-8"?>
<!-- Generator: Adobe Illustrator 21.0.2, SVG Export Plug-In . SVG Version: 6.00 Build 0)  -->
<svg version="1.1" id="Layer_1" xmlns="http://www.w3.org/2000/svg" xmlns:xlink="http://www.w3.org/1999/xlink" x="0px" y="0px"
	 viewBox="0 0 24 24" style="enable-background:new 0 0 24 24;" xml:space="preserve">
<style type="text/css">
	.st0{fill:#FCB514;}
	.st1{fill:#FFFFFF;}
</style>
<g>
	<circle class="st0" cx="-550" cy="-52.1" r="180.2"/>
	<polyline class="st0" points="-395.9,41.3 -551.2,279.8 -708.6,33.4 	"/>
	<path class="st1" d="M-446.4-50.4c0,1.6,0,3.2,0,4.9c-0.6,1.7-1,3.5-1.7,5.1c-3.5,7.4-9.6,10.8-17.6,11c-3.3,0.1-6.7,0-10.2,0
		c0,1,0,1.8,0,2.6c0,18.8,0,37.6,0,56.5c0,1.9-0.1,3.8-0.6,5.6c-2.1,7.9-8.1,12.3-16.6,12.4c-18.3,0-36.6,0-54.8,0
		c-0.6,0-1.2-0.1-2-0.1c0-0.9,0-1.7,0-2.5c0-16.9,0-33.9,0-50.8c0-6-2.8-8.9-8.9-8.9c-8.4,0-16.9,0-25.3,0c-6.2,0-9,2.9-9,9.1
		c0,16.9,0,33.9,0,50.8c0,0.8,0,1.6,0,2.3c-5.7,0-11,0.2-16.3-0.1c-4.1-0.2-7.6-2.3-10.3-5.4c-3.1-3.5-4.1-7.6-4.1-12.1
		c0-19,0-37.9,0-56.9c0-0.8,0-1.6,0-2.5c-3.4,0-6.6,0.1-9.8,0c-2.4-0.1-4.9-0.3-7.1-1.1c-13.5-4.7-17-21-6.6-31.3
		c27.9-27.9,55.8-55.8,83.8-83.7c2-2,4.7-3.8,7.4-4.8c7.9-3,14.8-0.8,20.7,5.1c26.9,26.9,53.7,53.7,80.6,80.5
		C-451.1-60.7-447.4-56.4-446.4-50.4z"/>
</g>
</svg>
