<?xml version="1.0" encoding="utf-8"?>
<!-- Generator: Adobe Illustrator 21.0.2, SVG Export Plug-In . SVG Version: 6.00 Build 0)  -->
<svg version="1.1" id="Layer_1" xmlns="http://www.w3.org/2000/svg" xmlns:xlink="http://www.w3.org/1999/xlink" x="0px" y="0px"
	 viewBox="0 0 24 24" style="enable-background:new 0 0 24 24;" xml:space="preserve">
<style type="text/css">
	.st0{fill:#007658;}
	.st1{fill:#FFFFFF;}
</style>
<g>
	<circle class="st0" cx="-270.9" cy="-55.1" r="180.2"/>
	<polyline class="st0" points="-116.8,38.3 -272.2,276.8 -429.6,30.4 	"/>
	<path class="st1" d="M-151.7,26.4c0.5,2,0.1,4.2-1.2,5.8c-1.3,1.6-3.3,2.6-5.3,2.6h-27.1c-2.1,0-4.1-1-5.3-2.6
		c-1.3-1.6-1.7-3.8-1.2-5.8l11.9-47.5c-7.1-3.2-12.1-10.3-12.1-18.6c0-8.8,5.7-16.4,13.6-19.2v-9.6l-26.1,11v29.2
		c-14.2,10.5-38.5,17.4-66.2,17.4c-29.1,0-54.5-7.6-68.3-19v-31.3l-66.8-28.2l131.8-55.6l138.5,58.5l-29.3,12.3v15.3
		c7.9,2.8,13.6,10.3,13.6,19.2c0,8.3-5,15.4-12.1,18.6L-151.7,26.4z"/>
</g>
</svg>
